<svg width="256" height="258" fill="none" xmlns="http://www.w3.org/2000/svg"><path d="M128 233.812C119.467 227.004 110.222 221.719 100.267 217.956C90.311 214.194 79.9998 212.312 69.3332 212.312C61.8665 212.312 54.5332 213.298 47.3332 215.269C40.1332 217.24 33.2443 220.017 26.6665 223.6C22.9332 225.571 19.3332 225.481 15.8665 223.331C12.3998 221.181 10.6665 218.046 10.6665 213.925V84.3875C10.6665 82.4167 11.1554 80.5354 12.1332 78.7438C13.1109 76.9521 14.5776 75.6083 16.5332 74.7125C24.7109 70.4125 33.2443 67.1875 42.1332 65.0375C51.0221 62.8875 60.0887 61.8125 69.3332 61.8125C79.6443 61.8125 89.7332 63.1563 99.5998 65.8438C109.467 68.5312 118.933 72.5625 128 77.9375V208.012C137.067 202.279 146.578 197.979 156.533 195.112C166.489 192.246 176.533 190.812 186.667 190.812C193.067 190.812 199.333 191.35 205.467 192.425C211.6 193.5 217.778 195.112 224 197.262V68.2625C226.667 69.1583 229.289 70.099 231.867 71.0844C234.444 72.0698 236.978 73.2792 239.467 74.7125C241.422 75.6083 242.889 76.9521 243.867 78.7438C244.844 80.5354 245.333 82.4167 245.333 84.3875V213.925C245.333 218.046 243.6 221.181 240.133 223.331C236.667 225.481 233.067 225.571 229.333 223.6C222.755 220.017 215.867 217.24 208.667 215.269C201.467 213.298 194.133 212.312 186.667 212.312C176 212.312 165.689 214.194 155.733 217.956C145.778 221.719 136.533 227.004 128 233.812ZM106.667 197.531V91.1063C100.8 88.5979 94.711 86.6719 88.3998 85.3281C82.0887 83.9844 75.7332 83.3125 69.3332 83.3125C62.7554 83.3125 56.3554 83.9396 50.1332 85.1937C43.9109 86.4479 37.8665 88.3292 31.9998 90.8375V197.531C38.2221 195.202 44.3998 193.5 50.5332 192.425C56.6665 191.35 62.9332 190.812 69.3332 190.812C75.7332 190.812 81.9998 191.35 88.1332 192.425C94.2665 193.5 100.444 195.202 106.667 197.531Z" fill="#0066FF"/><path d="M149.198 77.9305L203.025 24.1875V131.608L149.197 180.82L149.198 77.9305Z" fill="#E86826"/></svg>